{
	"asset":{
		"generator":"Khronos glTF Blender I/O v3.6.27",
		"version":"2.0"
	},
	"extensionsUsed":[
		"KHR_materials_specular",
		"KHR_materials_ior"
	],
	"scene":0,
	"scenes":[
		{
			"name":"Scene",
			"nodes":[
				0
			]
		}
	],
	"nodes":[
		{
			"mesh":0,
			"name":"Phenol.mol",
			"rotation":[
				0.7071068286895752,
				0,
				0,
				0.7071068286895752
			]
		}
	],
	"materials":[
		{
			"doubleSided":true,
			"extensions":{
				"KHR_materials_specular":{
					"specularColorFactor":[
						0.020080160244135427,
						0.020080160244135427,
						0.020080160244135427
					]
				},
				"KHR_materials_ior":{
					"ior":0.0010000000474974513
				}
			},
			"name":"kff0d0d",
			"pbrMetallicRoughness":{
				"baseColorFactor":[
					1,
					0.054999999701976776,
					0.054999999701976776,
					1
				],
				"metallicFactor":0,
				"roughnessFactor":0.5962674021720886
			}
		},
		{
			"doubleSided":true,
			"extensions":{
				"KHR_materials_specular":{
					"specularColorFactor":[
						0.020080160244135427,
						0.020080160244135427,
						0.020080160244135427
					]
				},
				"KHR_materials_ior":{
					"ior":0.0010000000474974513
				}
			},
			"name":"k000000",
			"pbrMetallicRoughness":{
				"baseColorFactor":[
					0,
					0,
					0,
					1
				],
				"metallicFactor":0,
				"roughnessFactor":0.5962674021720886
			}
		},
		{
			"doubleSided":true,
			"extensions":{
				"KHR_materials_specular":{
					"specularColorFactor":[
						0.020080160244135427,
						0.020080160244135427,
						0.020080160244135427
					]
				},
				"KHR_materials_ior":{
					"ior":0.0010000000474974513
				}
			},
			"name":"kffffff",
			"pbrMetallicRoughness":{
				"metallicFactor":0,
				"roughnessFactor":0.5962674021720886
			}
		},
		{
			"doubleSided":true,
			"extensions":{
				"KHR_materials_specular":{
					"specularColorFactor":[
						0.020080160244135427,
						0.020080160244135427,
						0.020080160244135427
					]
				},
				"KHR_materials_ior":{
					"ior":0.0010000000474974513
				}
			},
			"name":"k808080",
			"pbrMetallicRoughness":{
				"baseColorFactor":[
					0.5040000081062317,
					0.5040000081062317,
					0.5040000081062317,
					1
				],
				"metallicFactor":0,
				"roughnessFactor":0.5962674021720886
			}
		}
	],
	"meshes":[
		{
			"name":"Phenol.mol",
			"primitives":[
				{
					"attributes":{
						"POSITION":0,
						"NORMAL":1
					},
					"indices":2,
					"material":0
				},
				{
					"attributes":{
						"POSITION":3,
						"NORMAL":4
					},
					"indices":5,
					"material":1
				},
				{
					"attributes":{
						"POSITION":6,
						"NORMAL":7
					},
					"indices":8,
					"material":2
				},
				{
					"attributes":{
						"POSITION":9,
						"NORMAL":10
					},
					"indices":11,
					"material":3
				}
			]
		}
	],
	"accessors":[
		{
			"bufferView":0,
			"componentType":5126,
			"count":1034,
			"max":[
				-1.982200026512146,
				0.37959998846054077,
				0.3799000084400177
			],
			"min":[
				-2.7421998977661133,
				-0.38040000200271606,
				-0.38009998202323914
			],
			"type":"VEC3"
		},
		{
			"bufferView":1,
			"componentType":5126,
			"count":1034,
			"type":"VEC3"
		},
		{
			"bufferView":2,
			"componentType":5123,
			"count":3840,
			"type":"SCALAR"
		},
		{
			"bufferView":3,
			"componentType":5126,
			"count":6204,
			"max":[
				2.213599920272827,
				0.4253000020980835,
				1.6329998970031738
			],
			"min":[
				-1.4261000156402588,
				-0.4252000153064728,
				-1.6329998970031738
			],
			"type":"VEC3"
		},
		{
			"bufferView":4,
			"componentType":5126,
			"count":6204,
			"type":"VEC3"
		},
		{
			"bufferView":5,
			"componentType":5123,
			"count":23040,
			"type":"SCALAR"
		},
		{
			"bufferView":6,
			"componentType":5126,
			"count":6141,
			"max":[
				3.149700164794922,
				0.2752000093460083,
				2.42710018157959
			],
			"min":[
				-2.952199935913086,
				-0.27549999952316284,
				-2.4309000968933105
			],
			"type":"VEC3"
		},
		{
			"bufferView":7,
			"componentType":5126,
			"count":6141,
			"type":"VEC3"
		},
		{
			"bufferView":8,
			"componentType":5123,
			"count":23040,
			"type":"SCALAR"
		},
		{
			"bufferView":9,
			"componentType":5126,
			"count":35319,
			"max":[
				2.9757001399993896,
				0.14540690183639526,
				2.2531001567840576
			],
			"min":[
				-2.7781999111175537,
				-0.14110010862350464,
				-2.2569000720977783
			],
			"type":"VEC3"
		},
		{
			"bufferView":10,
			"componentType":5126,
			"count":35319,
			"type":"VEC3"
		},
		{
			"bufferView":11,
			"componentType":5123,
			"count":126336,
			"type":"SCALAR"
		}
	],
	"bufferViews":[
		{
			"buffer":0,
			"byteLength":12408,
			"byteOffset":0,
			"target":34962
		},
		{
			"buffer":0,
			"byteLength":12408,
			"byteOffset":12408,
			"target":34962
		},
		{
			"buffer":0,
			"byteLength":7680,
			"byteOffset":24816,
			"target":34963
		},
		{
			"buffer":0,
			"byteLength":74448,
			"byteOffset":32496,
			"target":34962
		},
		{
			"buffer":0,
			"byteLength":74448,
			"byteOffset":106944,
			"target":34962
		},
		{
			"buffer":0,
			"byteLength":46080,
			"byteOffset":181392,
			"target":34963
		},
		{
			"buffer":0,
			"byteLength":73692,
			"byteOffset":227472,
			"target":34962
		},
		{
			"buffer":0,
			"byteLength":73692,
			"byteOffset":301164,
			"target":34962
		},
		{
			"buffer":0,
			"byteLength":46080,
			"byteOffset":374856,
			"target":34963
		},
		{
			"buffer":0,
			"byteLength":423828,
			"byteOffset":420936,
			"target":34962
		},
		{
			"buffer":0,
			"byteLength":423828,
			"byteOffset":844764,
			"target":34962
		},
		{
			"buffer":0,
			"byteLength":252672,
			"byteOffset":1268592,
			"target":34963
		}
	],
	"buffers":[
		{
			"byteLength":1521264,
			"uri":"data:application/octet-stream;base64,"
		}
	]
}
